<svg xmlns="http://www.w3.org/2000/svg" version="1.1" xmlns:xlink="http://www.w3.org/1999/xlink" width="1000" height="1000"><metadata><rdf:RDF xmlns:rdf="http://www.w3.org/1999/02/22-rdf-syntax-ns#" xmlns:dc="http://purl.org/dc/elements/1.1/"><rdf:Description><dc:creator>RealFaviconGenerator</dc:creator><dc:source>https://realfavicongenerator.net</dc:source></rdf:Description></rdf:RDF></metadata><style>
    #light-icon {
      display: inline;
    }
    #dark-icon {
      display: none;
    }

    @media (prefers-color-scheme: dark) {
      #light-icon {
        display: none;
      }
      #dark-icon {
        display: inline;
      }
    }
  </style><g id="light-icon"><svg xmlns="http://www.w3.org/2000/svg" version="1.1" xmlns:xlink="http://www.w3.org/1999/xlink" width="1000" height="1000"><g><g transform="matrix(1.6153784023907602,0,0,1.6153784023907602,-5.684341886080802e-14,190.30772958565538)"><svg xmlns="http://www.w3.org/2000/svg" version="1.1" id="Layer_1" viewBox="0 0 619.05 383.43" width="619.05" height="383.43"><defs>
    <style>
      .st0 {
        fill: #0f5237;
      }

      .st1 {
        fill: #ac875a;
      }
    </style>
  </defs><path class="st0" d="M65.22,293.06C104.72,220.71,201.55,37.21,221.1,0h-51.95C149.18,0,130.8,10.9,121.07,28.49L3.58,248.07l-.1.19c-5.84,11.02-4.23,24.54,4.03,33.85l81.05,91.39c5.6,6.31,13.59,9.92,21.98,9.92h211.94c21.8,0,41.81-12.16,51.96-31.59l114.21-214.26c2.25-4.2-.75-9.29-5.47-9.29h-13.38v-.1h-137.21c-14.12,0-27.22,7.36-34.69,19.48l-13.99,22.73h105.15c3.21,0,5.28,3.41,3.83,6.29l-58.84,116.65c-5,9.99-15.2,16.22-26.28,16.12l-233.74-1.39c-7.65-.05-12.48-8.27-8.79-15.03"></path><path class="st1" d="M311.29,73.95c-11.08-.1-21.28,6.13-26.28,16.12l-58.84,116.65c-1.45,2.89.63,6.3,3.83,6.3h105.15l-13.99,22.73c-7.48,12.11-20.58,19.47-34.71,19.47h-137.21v-.09h-13.38c-4.72,0-7.71-5.09-5.47-9.29L244.59,31.6c10.15-19.43,30.17-31.6,51.96-31.6h211.96c8.38,0,16.38,3.61,21.98,9.92l81.05,91.4c8.25,9.3,9.86,22.83,4.03,33.84l-.11.19-117.49,219.58c-9.73,17.59-28.11,28.49-48.07,28.49h-51.95c19.55-37.2,116.38-220.71,155.87-293.06,3.68-6.76-1.16-14.98-8.8-15.02l-233.73-1.39Z"></path></svg></g></g></svg></g><g id="dark-icon"><svg xmlns="http://www.w3.org/2000/svg" version="1.1" xmlns:xlink="http://www.w3.org/1999/xlink" width="1000" height="1000"><g clip-path="url(#SvgjsClipPath1066)"><rect width="1000" height="1000" fill="#ffffff"></rect><g transform="matrix(1.2923027219126082,0,0,1.2923027219126082,100,252.24618366852428)"><svg xmlns="http://www.w3.org/2000/svg" version="1.1" id="Layer_1" viewBox="0 0 619.05 383.43" width="619.05" height="383.43"><defs>
    <style>
      .st0 {
        fill: #0f5237;
      }

      .st1 {
        fill: #ac875a;
      }
    </style>
  <clipPath id="SvgjsClipPath1066"><rect width="1000" height="1000" x="0" y="0" rx="200" ry="200"></rect></clipPath></defs><path class="st0" d="M65.22,293.06C104.72,220.71,201.55,37.21,221.1,0h-51.95C149.18,0,130.8,10.9,121.07,28.49L3.58,248.07l-.1.19c-5.84,11.02-4.23,24.54,4.03,33.85l81.05,91.39c5.6,6.31,13.59,9.92,21.98,9.92h211.94c21.8,0,41.81-12.16,51.96-31.59l114.21-214.26c2.25-4.2-.75-9.29-5.47-9.29h-13.38v-.1h-137.21c-14.12,0-27.22,7.36-34.69,19.48l-13.99,22.73h105.15c3.21,0,5.28,3.41,3.83,6.29l-58.84,116.65c-5,9.99-15.2,16.22-26.28,16.12l-233.74-1.39c-7.65-.05-12.48-8.27-8.79-15.03"></path><path class="st1" d="M311.29,73.95c-11.08-.1-21.28,6.13-26.28,16.12l-58.84,116.65c-1.45,2.89.63,6.3,3.83,6.3h105.15l-13.99,22.73c-7.48,12.11-20.58,19.47-34.71,19.47h-137.21v-.09h-13.38c-4.72,0-7.71-5.09-5.47-9.29L244.59,31.6c10.15-19.43,30.17-31.6,51.96-31.6h211.96c8.38,0,16.38,3.61,21.98,9.92l81.05,91.4c8.25,9.3,9.86,22.83,4.03,33.84l-.11.19-117.49,219.58c-9.73,17.59-28.11,28.49-48.07,28.49h-51.95c19.55-37.2,116.38-220.71,155.87-293.06,3.68-6.76-1.16-14.98-8.8-15.02l-233.73-1.39Z"></path></svg></g></g></svg></g></svg>